<svg width="24" height="25" viewBox="0 0 24 25" fill="none" xmlns="http://www.w3.org/2000/svg">
<g id="vuesax/linear/magicpen">
<g id="magicpen">
<path id="Vector" d="M3.5 20.6705C4.33 21.501 5.67 21.501 6.5 20.6705L19.5 7.66381C20.33 6.83338 20.33 5.49268 19.5 4.66225C18.67 3.83182 17.33 3.83182 16.5 4.66225L3.5 17.669C2.67 18.4994 2.67 19.8401 3.5 20.6705Z" stroke="#737373" stroke-width="1.5" stroke-linecap="round" stroke-linejoin="round"/>
<path id="Vector_2" d="M18.01 9.15457L15.01 6.15302" stroke="#737373" stroke-width="1.5" stroke-linecap="round" stroke-linejoin="round"/>
<path id="Vector_3" d="M8.5 2.60118L10 2.16095L9.56 3.66173L10 5.1625L8.5 4.72228L7 5.1625L7.44 3.66173L7 2.16095L8.5 2.60118Z" stroke="#737373" stroke-linecap="round" stroke-linejoin="round"/>
<path id="Vector_4" d="M4.5 8.60429L6 8.16406L5.56 9.66484L6 11.1656L4.5 10.7254L3 11.1656L3.44 9.66484L3 8.16406L4.5 8.60429Z" stroke="#737373" stroke-linecap="round" stroke-linejoin="round"/>
<path id="Vector_5" d="M19.5 13.6069L21 13.1666L20.56 14.6674L21 16.1682L19.5 15.728L18 16.1682L18.44 14.6674L18 13.1666L19.5 13.6069Z" stroke="#737373" stroke-linecap="round" stroke-linejoin="round"/>
</g>
</g>
</svg>
