<svg width="24" height="25" viewBox="0 0 24 25" fill="none" xmlns="http://www.w3.org/2000/svg">
<g id="vuesax/linear/eye">
<g id="eye">
<path id="Vector" d="M15.58 12.0103C15.58 13.9913 13.98 15.5922 12 15.5922C10.02 15.5922 8.42 13.9913 8.42 12.0103C8.42 10.0293 10.02 8.42847 12 8.42847C13.98 8.42847 15.58 10.0293 15.58 12.0103Z" stroke="#737373" stroke-width="1.5" stroke-linecap="round" stroke-linejoin="round"/>
<path id="Vector_2" d="M12 20.2847C15.53 20.2847 18.82 18.2036 21.11 14.6017C22.01 13.191 22.01 10.8197 21.11 9.40902C18.82 5.80715 15.53 3.72607 12 3.72607C8.47 3.72607 5.18 5.80715 2.89 9.40902C1.99 10.8197 1.99 13.191 2.89 14.6017C5.18 18.2036 8.47 20.2847 12 20.2847Z" stroke="#737373" stroke-width="1.5" stroke-linecap="round" stroke-linejoin="round"/>
</g>
</g>
</svg>
